<svg width="512" height="512" viewBox="0 0 512 512" fill="none" xmlns="http://www.w3.org/2000/svg">
  <rect width="512" height="512" rx="128" fill="#6366F1"/>
  <g transform="translate(128, 128)">
    <!-- Wrench icon -->
    <path d="M256 96c-88.4 0-160 71.6-160 160s71.6 160 160 160 160-71.6 160-160S344.4 96 256 96zm0 288c-70.7 0-128-57.3-128-128s57.3-128 128-128 128 57.3 128 128-57.3 128-128 128z" fill="white"/>
    <path d="M256 160c-52.9 0-96 43.1-96 96s43.1 96 96 96 96-43.1 96-96-43.1-96-96-96zm0 160c-35.3 0-64-28.7-64-64s28.7-64 64-64 64 28.7 64 64-28.7 64-64 64z" fill="white"/>
    <!-- Tool icons -->
    <circle cx="200" cy="200" r="16" fill="white"/>
    <circle cx="312" cy="200" r="16" fill="white"/>
    <circle cx="200" cy="312" r="16" fill="white"/>
    <circle cx="312" cy="312" r="16" fill="white"/>
  </g>
</svg> 